<svg width="258" height="26" viewBox="0 0 258 26" fill="none" xmlns="http://www.w3.org/2000/svg">
<path d="M19.02 0.735999C18.348 0.773332 17.8533 0.847999 17.536 0.96C17.2373 1.072 17.032 1.28667 16.92 1.604C16.808 1.92133 16.752 2.43467 16.752 3.144V17.032C16.752 17.7413 16.808 18.2547 16.92 18.572C17.032 18.8893 17.2373 19.104 17.536 19.216C17.8533 19.328 18.348 19.4027 19.02 19.44V20C18.236 19.944 17.0413 19.916 15.436 19.916C13.924 19.916 12.7387 19.944 11.88 20V19.44C12.552 19.4027 13.0373 19.328 13.336 19.216C13.6533 19.104 13.868 18.8893 13.98 18.572C14.092 18.2547 14.148 17.7413 14.148 17.032V10.312H5.048V17.032C5.048 17.7413 5.104 18.2547 5.216 18.572C5.328 18.8893 5.53333 19.104 5.832 19.216C6.14933 19.328 6.644 19.4027 7.316 19.44V20C6.45733 19.944 5.272 19.916 3.76 19.916C2.15467 19.916 0.96 19.944 0.176 20V19.44C0.848 19.4027 1.33333 19.328 1.632 19.216C1.94933 19.104 2.164 18.8893 2.276 18.572C2.388 18.2547 2.444 17.7413 2.444 17.032V3.144C2.444 2.43467 2.388 1.92133 2.276 1.604C2.164 1.28667 1.94933 1.072 1.632 0.96C1.33333 0.847999 0.848 0.773332 0.176 0.735999V0.176C0.96 0.231999 2.15467 0.259999 3.76 0.259999C5.25333 0.259999 6.43867 0.231999 7.316 0.176V0.735999C6.644 0.773332 6.14933 0.847999 5.832 0.96C5.53333 1.072 5.328 1.28667 5.216 1.604C5.104 1.92133 5.048 2.43467 5.048 3.144V9.752H14.148V3.144C14.148 2.43467 14.092 1.92133 13.98 1.604C13.868 1.28667 13.6533 1.072 13.336 0.96C13.0373 0.847999 12.552 0.773332 11.88 0.735999V0.176C12.7387 0.231999 13.924 0.259999 15.436 0.259999C17.0413 0.259999 18.236 0.231999 19.02 0.176V0.735999ZM28.3712 5.188C30.2752 5.188 31.8059 5.82267 32.9632 7.092C34.1392 8.34267 34.7272 10.2467 34.7272 12.804C34.7272 15.3613 34.1392 17.2653 32.9632 18.516C31.8059 19.7667 30.2752 20.392 28.3712 20.392C26.4672 20.392 24.9272 19.7667 23.7512 18.516C22.5939 17.2653 22.0152 15.3613 22.0152 12.804C22.0152 10.2467 22.5939 8.34267 23.7512 7.092C24.9272 5.82267 26.4672 5.188 28.3712 5.188ZM28.3712 5.748C27.2512 5.748 26.3646 6.32667 25.7112 7.484C25.0579 8.62267 24.7312 10.396 24.7312 12.804C24.7312 15.212 25.0579 16.9853 25.7112 18.124C26.3646 19.2627 27.2512 19.832 28.3712 19.832C29.4912 19.832 30.3779 19.2627 31.0312 18.124C31.6846 16.9853 32.0112 15.212 32.0112 12.804C32.0112 10.396 31.6846 8.62267 31.0312 7.484C30.3779 6.32667 29.4912 5.748 28.3712 5.748ZM46.0831 12.496C47.8751 12.5893 49.1724 12.9253 49.9751 13.504C50.7777 14.0827 51.1791 14.8947 51.1791 15.94C51.1791 17.1533 50.6751 18.1333 49.6671 18.88C48.6777 19.6267 47.0911 20 44.9071 20C44.5524 20 43.9831 19.9813 43.1991 19.944C42.3404 19.9067 41.6591 19.888 41.1551 19.888C40.6697 19.888 39.5684 19.9253 37.8511 20V19.412C38.6351 19.412 39.1857 19.272 39.5031 18.992C39.8204 18.6933 39.9791 18.1613 39.9791 17.396V8.212C39.9791 7.44667 39.8204 6.924 39.5031 6.644C39.1857 6.34533 38.6351 6.196 37.8511 6.196V5.608C39.5684 5.68267 40.6697 5.72 41.1551 5.72C41.6591 5.72 42.3591 5.70133 43.2551 5.664C44.0017 5.62667 44.5244 5.608 44.8231 5.608C46.7831 5.608 48.1831 5.90667 49.0231 6.504C49.8631 7.08267 50.2831 7.91333 50.2831 8.996C50.2831 9.836 49.9191 10.5733 49.1911 11.208C48.4817 11.8427 47.4457 12.272 46.0831 12.496ZM44.5431 6.196C43.7777 6.196 43.2457 6.34533 42.9471 6.644C42.6484 6.94267 42.4991 7.46533 42.4991 8.212V12.412H43.6191C44.7204 12.3933 45.5604 12.272 46.1391 12.048C46.7364 11.8053 47.1471 11.46 47.3711 11.012C47.5951 10.564 47.7071 9.96667 47.7071 9.22C47.7071 8.24933 47.4831 7.50267 47.0351 6.98C46.5871 6.45733 45.7564 6.196 44.5431 6.196ZM44.6271 19.412C46.0831 19.412 47.1004 19.104 47.6791 18.488C48.2577 17.8533 48.5471 17.0133 48.5471 15.968C48.5471 14.848 48.2391 14.0547 47.6231 13.588C47.0071 13.1213 46.1391 12.888 45.0191 12.888H42.4991V17.396C42.4991 18.18 42.6484 18.712 42.9471 18.992C43.2644 19.272 43.8244 19.412 44.6271 19.412ZM60.9962 5.188C62.9002 5.188 64.4309 5.82267 65.5882 7.092C66.7642 8.34267 67.3522 10.2467 67.3522 12.804C67.3522 15.3613 66.7642 17.2653 65.5882 18.516C64.4309 19.7667 62.9002 20.392 60.9962 20.392C59.0922 20.392 57.5522 19.7667 56.3762 18.516C55.2189 17.2653 54.6402 15.3613 54.6402 12.804C54.6402 10.2467 55.2189 8.34267 56.3762 7.092C57.5522 5.82267 59.0922 5.188 60.9962 5.188ZM60.9962 5.748C59.8762 5.748 58.9896 6.32667 58.3362 7.484C57.6829 8.62267 57.3562 10.396 57.3562 12.804C57.3562 15.212 57.6829 16.9853 58.3362 18.124C58.9896 19.2627 59.8762 19.832 60.9962 19.832C62.1162 19.832 63.0029 19.2627 63.6562 18.124C64.3096 16.9853 64.6362 15.212 64.6362 12.804C64.6362 10.396 64.3096 8.62267 63.6562 7.484C63.0029 6.32667 62.1162 5.748 60.9962 5.748ZM77.4761 5.188C78.7267 5.188 79.8094 5.48667 80.7241 6.084C81.6014 6.66267 82.0401 7.38133 82.0401 8.24C82.0401 8.72533 81.9001 9.108 81.6201 9.388C81.3401 9.668 80.9854 9.808 80.5561 9.808C80.1267 9.808 79.7627 9.68667 79.4641 9.444C79.1654 9.18267 79.0161 8.83733 79.0161 8.408C79.0161 8.016 79.1281 7.68933 79.3521 7.428C79.5761 7.148 79.8561 6.96133 80.1921 6.868C80.0054 6.532 79.6694 6.252 79.1841 6.028C78.7174 5.804 78.2134 5.692 77.6721 5.692C76.9814 5.692 76.3374 5.916 75.7401 6.364C75.1427 6.79333 74.6481 7.52133 74.2561 8.548C73.8641 9.556 73.6681 10.8907 73.6681 12.552C73.6681 14.8667 74.0414 16.556 74.7881 17.62C75.5347 18.6653 76.5054 19.188 77.7001 19.188C78.5027 19.188 79.2587 18.9547 79.9681 18.488C80.6961 18.0213 81.2934 17.2933 81.7601 16.304L82.2921 16.5C81.9747 17.564 81.3774 18.4787 80.5001 19.244C79.6414 20.0093 78.5214 20.392 77.1401 20.392C75.9827 20.392 74.9281 20.0933 73.9761 19.496C73.0427 18.8987 72.3054 18.04 71.7641 16.92C71.2227 15.7813 70.9521 14.4653 70.9521 12.972C70.9521 11.46 71.2227 10.116 71.7641 8.94C72.3241 7.764 73.0987 6.84933 74.0881 6.196C75.0774 5.524 76.2067 5.188 77.4761 5.188ZM98.8973 5.608C98.7666 6.84 98.7013 7.92267 98.7013 8.856C98.7013 9.584 98.7293 10.1627 98.7853 10.592H98.1413C98.0479 9.34133 97.8519 8.39867 97.5533 7.764C97.2733 7.12933 96.8813 6.70933 96.3773 6.504C95.8919 6.28 95.2293 6.168 94.3893 6.168H93.2973V17.116C93.2973 17.9747 93.5399 18.572 94.0253 18.908C94.5293 19.244 95.2759 19.412 96.2653 19.412V20L95.5653 19.972C93.7173 19.916 92.5413 19.888 92.0373 19.888C91.5333 19.888 90.3573 19.916 88.5093 19.972L87.8093 20V19.412C88.7986 19.412 89.5359 19.244 90.0213 18.908C90.5253 18.572 90.7773 17.9747 90.7773 17.116V6.168H89.4053C88.5839 6.168 87.9493 6.28 87.5013 6.504C87.0533 6.70933 86.6986 7.12933 86.4373 7.764C86.1946 8.39867 86.0266 9.35067 85.9333 10.62H85.2893C85.3453 10.1907 85.3733 9.612 85.3733 8.884C85.3733 7.95067 85.3079 6.868 85.1773 5.636H87.8653C88.7239 5.636 89.3773 5.64533 89.8253 5.664L92.0093 5.692C92.5133 5.692 93.2506 5.67333 94.2213 5.636L96.2093 5.608H98.8973ZM117.501 6.196C116.717 6.196 116.166 6.34533 115.849 6.644C115.532 6.924 115.373 7.44667 115.373 8.212V17.396C115.373 18.1613 115.532 18.6933 115.849 18.992C116.166 19.272 116.717 19.412 117.501 19.412V20C115.784 19.9253 114.664 19.888 114.141 19.888C113.618 19.888 112.573 19.9253 111.005 20V19.412C111.696 19.412 112.172 19.272 112.433 18.992C112.713 18.6933 112.853 18.1613 112.853 17.396V8.884L106.273 17.984C106.329 18.5067 106.497 18.88 106.777 19.104C107.057 19.3093 107.496 19.412 108.093 19.412V20C106.525 19.9253 105.48 19.888 104.957 19.888C104.434 19.888 103.314 19.9253 101.597 20V19.412C102.381 19.412 102.932 19.272 103.249 18.992C103.566 18.6933 103.725 18.1613 103.725 17.396V8.212C103.725 7.44667 103.566 6.924 103.249 6.644C102.932 6.34533 102.381 6.196 101.597 6.196V5.608C103.314 5.68267 104.434 5.72 104.957 5.72C105.48 5.72 106.525 5.68267 108.093 5.608V6.196C107.402 6.196 106.917 6.34533 106.637 6.644C106.376 6.924 106.245 7.44667 106.245 8.212V17.06L112.853 7.96C112.834 7.288 112.685 6.83067 112.405 6.588C112.125 6.32667 111.658 6.196 111.005 6.196V5.608C112.573 5.68267 113.618 5.72 114.141 5.72C114.664 5.72 115.784 5.68267 117.501 5.608V6.196ZM140.753 17.872C140.977 18.376 141.229 18.7493 141.509 18.992C141.789 19.216 142.2 19.356 142.741 19.412V20C142.032 20.1307 141.453 20.196 141.005 20.196C140.221 20.196 139.624 20.0187 139.213 19.664C138.802 19.2907 138.485 18.7213 138.261 17.956C138.224 17.8253 138.13 17.4893 137.981 16.948C137.832 16.4067 137.654 15.8933 137.449 15.408C137.244 14.904 137.02 14.484 136.777 14.148C136.385 13.6067 135.872 13.2427 135.237 13.056C134.621 12.8507 133.79 12.7667 132.745 12.804V17.396C132.745 18.1613 132.876 18.6933 133.137 18.992C133.417 19.272 133.902 19.412 134.593 19.412V20C133.025 19.9253 131.97 19.888 131.429 19.888C130.925 19.888 129.814 19.9253 128.097 20V19.412C128.881 19.412 129.432 19.272 129.749 18.992C130.066 18.6933 130.225 18.1613 130.225 17.396V8.212C130.225 7.44667 130.066 6.924 129.749 6.644C129.432 6.34533 128.881 6.196 128.097 6.196V5.608C129.814 5.68267 130.925 5.72 131.429 5.72C131.97 5.72 133.025 5.68267 134.593 5.608V6.196C133.902 6.196 133.417 6.34533 133.137 6.644C132.876 6.924 132.745 7.44667 132.745 8.212V12.328C133.697 12.272 134.444 12.104 134.985 11.824C135.545 11.5253 135.965 11.1427 136.245 10.676C136.544 10.2093 136.833 9.56533 137.113 8.744C137.374 7.96 137.608 7.344 137.813 6.896C138.037 6.448 138.354 6.056 138.765 5.72C139.194 5.36533 139.745 5.188 140.417 5.188C141.033 5.188 141.481 5.33733 141.761 5.636C142.06 5.93467 142.209 6.29867 142.209 6.728C142.209 7.15733 142.069 7.512 141.789 7.792C141.528 8.072 141.173 8.212 140.725 8.212C140.221 8.212 139.82 8.05333 139.521 7.736C139.241 7.4 139.101 6.96133 139.101 6.42V6.224C138.821 6.35467 138.578 6.616 138.373 7.008C138.186 7.4 137.888 8.13733 137.477 9.22C137.16 10.06 136.824 10.7227 136.469 11.208C136.133 11.6933 135.629 12.048 134.957 12.272C135.984 12.3093 136.852 12.4773 137.561 12.776C138.27 13.056 138.84 13.532 139.269 14.204C139.474 14.54 139.67 14.9693 139.857 15.492C140.062 16.0147 140.193 16.3507 140.249 16.5C140.436 17.0787 140.604 17.536 140.753 17.872ZM156.013 5.664C156.834 5.664 157.543 5.636 158.141 5.58V6.14C157.767 6.17733 157.431 6.34533 157.133 6.644C156.853 6.94267 156.582 7.428 156.321 8.1L151.729 20.14L150.777 22.576C150.422 23.4907 150.021 24.144 149.573 24.536C149.293 24.7973 148.957 24.984 148.565 25.096C148.173 25.208 147.781 25.264 147.389 25.264C146.829 25.264 146.371 25.1147 146.017 24.816C145.662 24.5173 145.485 24.1067 145.485 23.584C145.485 23.136 145.615 22.772 145.877 22.492C146.138 22.2307 146.502 22.1 146.969 22.1C147.379 22.1 147.715 22.212 147.977 22.436C148.257 22.6787 148.397 23.0053 148.397 23.416C148.397 23.976 148.145 24.396 147.641 24.676C147.678 24.6947 147.734 24.704 147.809 24.704C148.835 24.704 149.629 23.976 150.189 22.52L151.169 19.972L146.101 7.736C145.783 7.10133 145.466 6.68133 145.149 6.476C144.831 6.27067 144.514 6.168 144.197 6.168V5.58C144.999 5.692 145.914 5.748 146.941 5.748C147.874 5.748 149.087 5.692 150.581 5.58V6.168C149.909 6.168 149.414 6.224 149.097 6.336C148.798 6.448 148.649 6.71867 148.649 7.148C148.649 7.54 148.761 7.99733 148.985 8.52L152.345 16.864L155.453 8.772C155.658 8.212 155.761 7.78267 155.761 7.484C155.761 7.05467 155.593 6.73733 155.257 6.532C154.921 6.32667 154.389 6.196 153.661 6.14V5.58C154.65 5.636 155.434 5.664 156.013 5.664ZM171.39 6.196C170.606 6.196 170.055 6.34533 169.738 6.644C169.42 6.924 169.262 7.44667 169.262 8.212V17.396C169.262 18.1613 169.42 18.6933 169.738 18.992C170.055 19.272 170.606 19.412 171.39 19.412V20C169.672 19.9253 168.534 19.888 167.974 19.888C167.544 19.888 166.462 19.916 164.726 19.972L164.054 20V19.412C164.95 19.412 165.622 19.272 166.07 18.992C166.518 18.6933 166.742 18.1613 166.742 17.396V8.212C166.742 7.44667 166.602 6.924 166.322 6.644C166.06 6.34533 165.584 6.196 164.894 6.196H164.642C164.194 6.196 163.886 6.336 163.718 6.616C163.568 6.87733 163.456 7.40933 163.382 8.212C163.176 10.4333 162.962 12.2533 162.738 13.672C162.532 15.072 162.206 16.332 161.758 17.452C160.955 19.412 159.9 20.392 158.594 20.392C158.052 20.392 157.586 20.2427 157.194 19.944C156.82 19.6453 156.634 19.2347 156.634 18.712C156.634 18.264 156.774 17.9093 157.054 17.648C157.334 17.368 157.698 17.228 158.146 17.228C158.556 17.228 158.892 17.3493 159.154 17.592C159.415 17.816 159.546 18.1427 159.546 18.572C159.546 19.2253 159.191 19.6827 158.482 19.944C158.519 19.9627 158.612 19.972 158.762 19.972C159.359 19.972 159.863 19.7013 160.274 19.16C160.703 18.6187 161.048 18.0027 161.31 17.312C162.056 15.3893 162.579 12.356 162.878 8.212C162.934 7.46533 162.775 6.94267 162.402 6.644C162.047 6.34533 161.468 6.196 160.666 6.196V5.608C161.487 5.68267 162.122 5.72 162.57 5.72H164.95H168.002C168.543 5.72 169.672 5.68267 171.39 5.608V6.196ZM181.391 11.6C183.332 11.6 184.751 11.964 185.647 12.692C186.562 13.4013 187.019 14.372 187.019 15.604C187.019 16.3507 186.814 17.06 186.403 17.732C185.992 18.3853 185.33 18.9267 184.415 19.356C183.519 19.7853 182.371 20 180.971 20C180.672 20 180.131 19.9813 179.347 19.944C178.488 19.9067 177.798 19.888 177.275 19.888C176.79 19.888 175.688 19.9253 173.971 20V19.412C174.755 19.412 175.306 19.272 175.623 18.992C175.94 18.6933 176.099 18.1613 176.099 17.396V8.212C176.099 7.44667 175.959 6.924 175.679 6.644C175.418 6.34533 174.942 6.196 174.251 6.196V5.608C175.819 5.68267 176.864 5.72 177.387 5.72C177.91 5.72 179.03 5.68267 180.747 5.608V6.196C179.963 6.196 179.412 6.34533 179.095 6.644C178.778 6.924 178.619 7.44667 178.619 8.212V11.6H181.391ZM180.663 19.412C182.044 19.412 183.006 19.0853 183.547 18.432C184.107 17.76 184.387 16.8733 184.387 15.772C184.387 14.484 184.023 13.5507 183.295 12.972C182.567 12.3747 181.382 12.076 179.739 12.076H178.619V17.396C178.619 18.1427 178.768 18.6653 179.067 18.964C179.366 19.2627 179.898 19.412 180.663 19.412ZM202.721 5.608C202.591 6.84 202.525 7.92267 202.525 8.856C202.525 9.584 202.553 10.1627 202.609 10.592H201.965C201.872 9.34133 201.676 8.39867 201.377 7.764C201.097 7.12933 200.705 6.70933 200.201 6.504C199.716 6.28 199.053 6.168 198.213 6.168H197.121V17.116C197.121 17.9747 197.364 18.572 197.849 18.908C198.353 19.244 199.1 19.412 200.089 19.412V20L199.389 19.972C197.541 19.916 196.365 19.888 195.861 19.888C195.357 19.888 194.181 19.916 192.333 19.972L191.633 20V19.412C192.623 19.412 193.36 19.244 193.845 18.908C194.349 18.572 194.601 17.9747 194.601 17.116V6.168H193.229C192.408 6.168 191.773 6.28 191.325 6.504C190.877 6.70933 190.523 7.12933 190.261 7.764C190.019 8.39867 189.851 9.35067 189.757 10.62H189.113C189.169 10.1907 189.197 9.612 189.197 8.884C189.197 7.95067 189.132 6.868 189.001 5.636H191.689C192.548 5.636 193.201 5.64533 193.649 5.664L195.833 5.692C196.337 5.692 197.075 5.67333 198.045 5.636L200.033 5.608H202.721ZM216.313 5.664C217.135 5.664 217.844 5.636 218.441 5.58V6.14C218.068 6.17733 217.732 6.34533 217.433 6.644C217.153 6.94267 216.883 7.428 216.621 8.1L212.029 20.14L211.077 22.576C210.723 23.4907 210.321 24.144 209.873 24.536C209.593 24.7973 209.257 24.984 208.865 25.096C208.473 25.208 208.081 25.264 207.689 25.264C207.129 25.264 206.672 25.1147 206.317 24.816C205.963 24.5173 205.785 24.1067 205.785 23.584C205.785 23.136 205.916 22.772 206.177 22.492C206.439 22.2307 206.803 22.1 207.269 22.1C207.68 22.1 208.016 22.212 208.277 22.436C208.557 22.6787 208.697 23.0053 208.697 23.416C208.697 23.976 208.445 24.396 207.941 24.676C207.979 24.6947 208.035 24.704 208.109 24.704C209.136 24.704 209.929 23.976 210.489 22.52L211.469 19.972L206.401 7.736C206.084 7.10133 205.767 6.68133 205.449 6.476C205.132 6.27067 204.815 6.168 204.497 6.168V5.58C205.3 5.692 206.215 5.748 207.241 5.748C208.175 5.748 209.388 5.692 210.881 5.58V6.168C210.209 6.168 209.715 6.224 209.397 6.336C209.099 6.448 208.949 6.71867 208.949 7.148C208.949 7.54 209.061 7.99733 209.285 8.52L212.645 16.864L215.753 8.772C215.959 8.212 216.061 7.78267 216.061 7.484C216.061 7.05467 215.893 6.73733 215.557 6.532C215.221 6.32667 214.689 6.196 213.961 6.14V5.58C214.951 5.636 215.735 5.664 216.313 5.664ZM229.463 5.188C230.452 5.188 231.339 5.45867 232.123 6C232.925 6.54133 233.551 7.33467 233.999 8.38C234.447 9.42533 234.671 10.676 234.671 12.132C234.671 13.5693 234.437 14.9133 233.971 16.164C233.523 17.4147 232.813 18.432 231.843 19.216C230.891 20 229.696 20.392 228.259 20.392C227.549 20.392 226.905 20.252 226.327 19.972C225.748 19.692 225.3 19.328 224.983 18.88V22.464C224.983 23.2293 225.207 23.752 225.655 24.032C226.103 24.3307 226.775 24.48 227.671 24.48V25.068L227.027 25.04C225.291 24.984 224.161 24.956 223.639 24.956C223.191 24.956 222.183 24.9933 220.615 25.068V24.48C221.305 24.48 221.781 24.3493 222.043 24.088C222.323 23.8453 222.463 23.3973 222.463 22.744V8.632C222.463 7.77333 222.304 7.148 221.987 6.756C221.669 6.364 221.119 6.168 220.335 6.168V5.58C220.913 5.636 221.492 5.664 222.071 5.664C223.247 5.664 224.217 5.53333 224.983 5.272V8.24C225.393 7.26933 225.991 6.52267 226.775 6C227.559 5.45867 228.455 5.188 229.463 5.188ZM227.951 19.748C230.62 19.748 231.955 17.34 231.955 12.524C231.955 8.19333 230.872 6.028 228.707 6.028C227.867 6.028 227.111 6.336 226.439 6.952C225.767 7.54933 225.281 8.41733 224.983 9.556V17.956C225.244 18.4973 225.627 18.936 226.131 19.272C226.635 19.5893 227.241 19.748 227.951 19.748ZM244.324 11.6C246.266 11.6 247.684 11.964 248.58 12.692C249.495 13.4013 249.952 14.372 249.952 15.604C249.952 16.3507 249.747 17.06 249.336 17.732C248.926 18.3853 248.263 18.9267 247.348 19.356C246.452 19.7853 245.304 20 243.904 20C243.699 20 243.279 19.9813 242.644 19.944C241.972 19.9067 241.44 19.888 241.048 19.888C240.563 19.888 239.462 19.9253 237.744 20V19.412C238.528 19.412 239.079 19.272 239.396 18.992C239.714 18.6933 239.872 18.1613 239.872 17.396V8.212C239.872 7.44667 239.732 6.924 239.452 6.644C239.191 6.34533 238.715 6.196 238.024 6.196V5.608C239.592 5.68267 240.638 5.72 241.16 5.72C241.683 5.72 242.803 5.68267 244.52 5.608V6.196C243.736 6.196 243.186 6.34533 242.868 6.644C242.551 6.924 242.392 7.44667 242.392 8.212V11.6H244.324ZM255.328 17.396C255.328 18.1613 255.487 18.6933 255.804 18.992C256.122 19.272 256.672 19.412 257.456 19.412V20C255.739 19.9253 254.6 19.888 254.04 19.888C253.555 19.888 252.528 19.9253 250.96 20V19.412C251.651 19.412 252.127 19.272 252.388 18.992C252.668 18.6933 252.808 18.1613 252.808 17.396V8.212C252.808 7.44667 252.668 6.924 252.388 6.644C252.127 6.34533 251.651 6.196 250.96 6.196V5.608C252.528 5.68267 253.555 5.72 254.04 5.72C254.563 5.72 255.608 5.68267 257.176 5.608V6.196C256.486 6.196 256 6.34533 255.72 6.644C255.459 6.924 255.328 7.44667 255.328 8.212V17.396ZM243.596 19.412C244.978 19.412 245.939 19.0853 246.48 18.432C247.04 17.76 247.32 16.8733 247.32 15.772C247.32 14.484 246.956 13.5507 246.228 12.972C245.5 12.3747 244.315 12.076 242.672 12.076H242.392V17.396C242.392 18.1427 242.476 18.6653 242.644 18.964C242.831 19.2627 243.148 19.412 243.596 19.412Z" fill="white"/>
</svg>
