<svg width="319" height="32" viewBox="0 0 319 32" fill="none" xmlns="http://www.w3.org/2000/svg">
<path d="M24.025 0.919999C23.185 0.966665 22.5667 1.06 22.17 1.2C21.7967 1.34 21.54 1.60833 21.4 2.005C21.26 2.40167 21.19 3.04333 21.19 3.93V21.29C21.19 22.1767 21.26 22.8183 21.4 23.215C21.54 23.6117 21.7967 23.88 22.17 24.02C22.5667 24.16 23.185 24.2533 24.025 24.3V25C23.045 24.93 21.5517 24.895 19.545 24.895C17.655 24.895 16.1733 24.93 15.1 25V24.3C15.94 24.2533 16.5467 24.16 16.92 24.02C17.3167 23.88 17.585 23.6117 17.725 23.215C17.865 22.8183 17.935 22.1767 17.935 21.29V12.89H6.56V21.29C6.56 22.1767 6.63 22.8183 6.77 23.215C6.91 23.6117 7.16667 23.88 7.54 24.02C7.93667 24.16 8.555 24.2533 9.395 24.3V25C8.32167 24.93 6.84 24.895 4.95 24.895C2.94333 24.895 1.45 24.93 0.47 25V24.3C1.31 24.2533 1.91667 24.16 2.29 24.02C2.68667 23.88 2.955 23.6117 3.095 23.215C3.235 22.8183 3.305 22.1767 3.305 21.29V3.93C3.305 3.04333 3.235 2.40167 3.095 2.005C2.955 1.60833 2.68667 1.34 2.29 1.2C1.91667 1.06 1.31 0.966665 0.47 0.919999V0.22C1.45 0.289999 2.94333 0.324998 4.95 0.324998C6.81667 0.324998 8.29833 0.289999 9.395 0.22V0.919999C8.555 0.966665 7.93667 1.06 7.54 1.2C7.16667 1.34 6.91 1.60833 6.77 2.005C6.63 2.40167 6.56 3.04333 6.56 3.93V12.19H17.935V3.93C17.935 3.04333 17.865 2.40167 17.725 2.005C17.585 1.60833 17.3167 1.34 16.92 1.2C16.5467 1.06 15.94 0.966665 15.1 0.919999V0.22C16.1733 0.289999 17.655 0.324998 19.545 0.324998C21.5517 0.324998 23.045 0.289999 24.025 0.22V0.919999ZM35.464 6.485C37.844 6.485 39.7574 7.27833 41.204 8.865C42.674 10.4283 43.409 12.8083 43.409 16.005C43.409 19.2017 42.674 21.5817 41.204 23.145C39.7574 24.7083 37.844 25.49 35.464 25.49C33.084 25.49 31.159 24.7083 29.689 23.145C28.2424 21.5817 27.519 19.2017 27.519 16.005C27.519 12.8083 28.2424 10.4283 29.689 8.865C31.159 7.27833 33.084 6.485 35.464 6.485ZM35.464 7.185C34.064 7.185 32.9557 7.90833 32.139 9.355C31.3224 10.7783 30.914 12.995 30.914 16.005C30.914 19.015 31.3224 21.2317 32.139 22.655C32.9557 24.0783 34.064 24.79 35.464 24.79C36.864 24.79 37.9724 24.0783 38.789 22.655C39.6057 21.2317 40.014 19.015 40.014 16.005C40.014 12.995 39.6057 10.7783 38.789 9.355C37.9724 7.90833 36.864 7.185 35.464 7.185ZM57.3538 15.62C59.5938 15.7367 61.2155 16.1567 62.2188 16.88C63.2222 17.6033 63.7238 18.6183 63.7238 19.925C63.7238 21.4417 63.0938 22.6667 61.8338 23.6C60.5972 24.5333 58.6138 25 55.8838 25C55.4405 25 54.7288 24.9767 53.7488 24.93C52.6755 24.8833 51.8238 24.86 51.1938 24.86C50.5872 24.86 49.2105 24.9067 47.0638 25V24.265C48.0438 24.265 48.7322 24.09 49.1288 23.74C49.5255 23.3667 49.7238 22.7017 49.7238 21.745V10.265C49.7238 9.30833 49.5255 8.655 49.1288 8.305C48.7322 7.93167 48.0438 7.745 47.0638 7.745V7.01C49.2105 7.10333 50.5872 7.15 51.1938 7.15C51.8238 7.15 52.6988 7.12667 53.8188 7.08C54.7522 7.03333 55.4055 7.01 55.7788 7.01C58.2288 7.01 59.9788 7.38333 61.0288 8.13C62.0788 8.85333 62.6038 9.89167 62.6038 11.245C62.6038 12.295 62.1488 13.2167 61.2388 14.01C60.3522 14.8033 59.0572 15.34 57.3538 15.62ZM55.4288 7.745C54.4722 7.745 53.8072 7.93167 53.4338 8.305C53.0605 8.67833 52.8738 9.33167 52.8738 10.265V15.515H54.2738C55.6505 15.4917 56.7005 15.34 57.4238 15.06C58.1705 14.7567 58.6838 14.325 58.9638 13.765C59.2438 13.205 59.3838 12.4583 59.3838 11.525C59.3838 10.3117 59.1038 9.37833 58.5438 8.725C57.9838 8.07167 56.9455 7.745 55.4288 7.745ZM55.5338 24.265C57.3538 24.265 58.6255 23.88 59.3488 23.11C60.0722 22.3167 60.4338 21.2667 60.4338 19.96C60.4338 18.56 60.0488 17.5683 59.2788 16.985C58.5088 16.4017 57.4238 16.11 56.0238 16.11H52.8738V21.745C52.8738 22.725 53.0605 23.39 53.4338 23.74C53.8305 24.09 54.5305 24.265 55.5338 24.265ZM75.7453 6.485C78.1253 6.485 80.0386 7.27833 81.4853 8.865C82.9553 10.4283 83.6903 12.8083 83.6903 16.005C83.6903 19.2017 82.9553 21.5817 81.4853 23.145C80.0386 24.7083 78.1253 25.49 75.7453 25.49C73.3653 25.49 71.4403 24.7083 69.9703 23.145C68.5236 21.5817 67.8003 19.2017 67.8003 16.005C67.8003 12.8083 68.5236 10.4283 69.9703 8.865C71.4403 7.27833 73.3653 6.485 75.7453 6.485ZM75.7453 7.185C74.3453 7.185 73.2369 7.90833 72.4203 9.355C71.6036 10.7783 71.1953 12.995 71.1953 16.005C71.1953 19.015 71.6036 21.2317 72.4203 22.655C73.2369 24.0783 74.3453 24.79 75.7453 24.79C77.1453 24.79 78.2536 24.0783 79.0703 22.655C79.8869 21.2317 80.2953 19.015 80.2953 16.005C80.2953 12.995 79.8869 10.7783 79.0703 9.355C78.2536 7.90833 77.1453 7.185 75.7453 7.185ZM96.0951 6.485C97.6584 6.485 99.0117 6.85833 100.155 7.605C101.252 8.32833 101.8 9.22667 101.8 10.3C101.8 10.9067 101.625 11.385 101.275 11.735C100.925 12.085 100.482 12.26 99.9451 12.26C99.4084 12.26 98.9534 12.1083 98.5801 11.805C98.2067 11.4783 98.0201 11.0467 98.0201 10.51C98.0201 10.02 98.1601 9.61167 98.4401 9.285C98.7201 8.935 99.0701 8.70167 99.4901 8.585C99.2567 8.165 98.8367 7.815 98.2301 7.535C97.6467 7.255 97.0167 7.115 96.3401 7.115C95.4767 7.115 94.6717 7.395 93.9251 7.955C93.1784 8.49167 92.5601 9.40167 92.0701 10.685C91.5801 11.945 91.3351 13.6133 91.3351 15.69C91.3351 18.5833 91.8017 20.695 92.7351 22.025C93.6684 23.3317 94.8817 23.985 96.3751 23.985C97.3784 23.985 98.3234 23.6933 99.2101 23.11C100.12 22.5267 100.867 21.6167 101.45 20.38L102.115 20.625C101.718 21.955 100.972 23.0983 99.8751 24.055C98.8017 25.0117 97.4017 25.49 95.6751 25.49C94.2284 25.49 92.9101 25.1167 91.7201 24.37C90.5534 23.6233 89.6317 22.55 88.9551 21.15C88.2784 19.7267 87.9401 18.0817 87.9401 16.215C87.9401 14.325 88.2784 12.645 88.9551 11.175C89.6551 9.705 90.6234 8.56167 91.8601 7.745C93.0967 6.905 94.5084 6.485 96.0951 6.485ZM122.622 7.01C122.458 8.55 122.377 9.90333 122.377 11.07C122.377 11.98 122.412 12.7033 122.482 13.24H121.677C121.56 11.6767 121.315 10.4983 120.942 9.705C120.592 8.91167 120.102 8.38667 119.472 8.13C118.865 7.85 118.037 7.71 116.987 7.71H115.622V21.395C115.622 22.4683 115.925 23.215 116.532 23.635C117.162 24.055 118.095 24.265 119.332 24.265V25L118.457 24.965C116.147 24.895 114.677 24.86 114.047 24.86C113.417 24.86 111.947 24.895 109.637 24.965L108.762 25V24.265C109.998 24.265 110.92 24.055 111.527 23.635C112.157 23.215 112.472 22.4683 112.472 21.395V7.71H110.757C109.73 7.71 108.937 7.85 108.377 8.13C107.817 8.38667 107.373 8.91167 107.047 9.705C106.743 10.4983 106.533 11.6883 106.417 13.275H105.612C105.682 12.7383 105.717 12.015 105.717 11.105C105.717 9.93833 105.635 8.585 105.472 7.045H108.832C109.905 7.045 110.722 7.05667 111.282 7.08L114.012 7.115C114.642 7.115 115.563 7.09167 116.777 7.045L119.262 7.01H122.622ZM145.626 7.745C144.646 7.745 143.958 7.93167 143.561 8.305C143.165 8.655 142.966 9.30833 142.966 10.265V21.745C142.966 22.7017 143.165 23.3667 143.561 23.74C143.958 24.09 144.646 24.265 145.626 24.265V25C143.48 24.9067 142.08 24.86 141.426 24.86C140.773 24.86 139.466 24.9067 137.506 25V24.265C138.37 24.265 138.965 24.09 139.291 23.74C139.641 23.3667 139.816 22.7017 139.816 21.745V11.105L131.591 22.48C131.661 23.1333 131.871 23.6 132.221 23.88C132.571 24.1367 133.12 24.265 133.866 24.265V25C131.906 24.9067 130.6 24.86 129.946 24.86C129.293 24.86 127.893 24.9067 125.746 25V24.265C126.726 24.265 127.415 24.09 127.811 23.74C128.208 23.3667 128.406 22.7017 128.406 21.745V10.265C128.406 9.30833 128.208 8.655 127.811 8.305C127.415 7.93167 126.726 7.745 125.746 7.745V7.01C127.893 7.10333 129.293 7.15 129.946 7.15C130.6 7.15 131.906 7.10333 133.866 7.01V7.745C133.003 7.745 132.396 7.93167 132.046 8.305C131.72 8.655 131.556 9.30833 131.556 10.265V21.325L139.816 9.95C139.793 9.11 139.606 8.53833 139.256 8.235C138.906 7.90833 138.323 7.745 137.506 7.745V7.01C139.466 7.10333 140.773 7.15 141.426 7.15C142.08 7.15 143.48 7.10333 145.626 7.01V7.745ZM174.191 22.34C174.471 22.97 174.786 23.4367 175.136 23.74C175.486 24.02 176 24.195 176.676 24.265V25C175.79 25.1633 175.066 25.245 174.506 25.245C173.526 25.245 172.78 25.0233 172.266 24.58C171.753 24.1133 171.356 23.4017 171.076 22.445C171.03 22.2817 170.913 21.8617 170.726 21.185C170.54 20.5083 170.318 19.8667 170.061 19.26C169.805 18.63 169.525 18.105 169.221 17.685C168.731 17.0083 168.09 16.5533 167.296 16.32C166.526 16.0633 165.488 15.9583 164.181 16.005V21.745C164.181 22.7017 164.345 23.3667 164.671 23.74C165.021 24.09 165.628 24.265 166.491 24.265V25C164.531 24.9067 163.213 24.86 162.536 24.86C161.906 24.86 160.518 24.9067 158.371 25V24.265C159.351 24.265 160.04 24.09 160.436 23.74C160.833 23.3667 161.031 22.7017 161.031 21.745V10.265C161.031 9.30833 160.833 8.655 160.436 8.305C160.04 7.93167 159.351 7.745 158.371 7.745V7.01C160.518 7.10333 161.906 7.15 162.536 7.15C163.213 7.15 164.531 7.10333 166.491 7.01V7.745C165.628 7.745 165.021 7.93167 164.671 8.305C164.345 8.655 164.181 9.30833 164.181 10.265V15.41C165.371 15.34 166.305 15.13 166.981 14.78C167.681 14.4067 168.206 13.9283 168.556 13.345C168.93 12.7617 169.291 11.9567 169.641 10.93C169.968 9.95 170.26 9.18 170.516 8.62C170.796 8.06 171.193 7.57 171.706 7.15C172.243 6.70667 172.931 6.485 173.771 6.485C174.541 6.485 175.101 6.67167 175.451 7.045C175.825 7.41833 176.011 7.87333 176.011 8.41C176.011 8.94667 175.836 9.39 175.486 9.74C175.16 10.09 174.716 10.265 174.156 10.265C173.526 10.265 173.025 10.0667 172.651 9.67C172.301 9.25 172.126 8.70167 172.126 8.025V7.78C171.776 7.94333 171.473 8.27 171.216 8.76C170.983 9.25 170.61 10.1717 170.096 11.525C169.7 12.575 169.28 13.4033 168.836 14.01C168.416 14.6167 167.786 15.06 166.946 15.34C168.23 15.3867 169.315 15.5967 170.201 15.97C171.088 16.32 171.8 16.915 172.336 17.755C172.593 18.175 172.838 18.7117 173.071 19.365C173.328 20.0183 173.491 20.4383 173.561 20.625C173.795 21.3483 174.005 21.92 174.191 22.34ZM193.016 7.08C194.042 7.08 194.929 7.045 195.676 6.975V7.675C195.209 7.72167 194.789 7.93167 194.416 8.305C194.066 8.67833 193.727 9.285 193.401 10.125L187.661 25.175L186.471 28.22C186.027 29.3633 185.526 30.18 184.966 30.67C184.616 30.9967 184.196 31.23 183.706 31.37C183.216 31.51 182.726 31.58 182.236 31.58C181.536 31.58 180.964 31.3933 180.521 31.02C180.077 30.6467 179.856 30.1333 179.856 29.48C179.856 28.92 180.019 28.465 180.346 28.115C180.672 27.7883 181.127 27.625 181.711 27.625C182.224 27.625 182.644 27.765 182.971 28.045C183.321 28.3483 183.496 28.7567 183.496 29.27C183.496 29.97 183.181 30.495 182.551 30.845C182.597 30.8683 182.667 30.88 182.761 30.88C184.044 30.88 185.036 29.97 185.736 28.15L186.961 24.965L180.626 9.67C180.229 8.87667 179.832 8.35167 179.436 8.095C179.039 7.83833 178.642 7.71 178.246 7.71V6.975C179.249 7.115 180.392 7.185 181.676 7.185C182.842 7.185 184.359 7.115 186.226 6.975V7.71C185.386 7.71 184.767 7.78 184.371 7.92C183.997 8.06 183.811 8.39833 183.811 8.935C183.811 9.425 183.951 9.99667 184.231 10.65L188.431 21.08L192.316 10.965C192.572 10.265 192.701 9.72833 192.701 9.355C192.701 8.81833 192.491 8.42167 192.071 8.165C191.651 7.90833 190.986 7.745 190.076 7.675V6.975C191.312 7.045 192.292 7.08 193.016 7.08ZM211.987 7.745C211.007 7.745 210.319 7.93167 209.922 8.305C209.525 8.655 209.327 9.30833 209.327 10.265V21.745C209.327 22.7017 209.525 23.3667 209.922 23.74C210.319 24.09 211.007 24.265 211.987 24.265V25C209.84 24.9067 208.417 24.86 207.717 24.86C207.18 24.86 205.827 24.895 203.657 24.965L202.817 25V24.265C203.937 24.265 204.777 24.09 205.337 23.74C205.897 23.3667 206.177 22.7017 206.177 21.745V10.265C206.177 9.30833 206.002 8.655 205.652 8.305C205.325 7.93167 204.73 7.745 203.867 7.745H203.552C202.992 7.745 202.607 7.92 202.397 8.27C202.21 8.59667 202.07 9.26167 201.977 10.265C201.72 13.0417 201.452 15.3167 201.172 17.09C200.915 18.84 200.507 20.415 199.947 21.815C198.944 24.265 197.625 25.49 195.992 25.49C195.315 25.49 194.732 25.3033 194.242 24.93C193.775 24.5567 193.542 24.0433 193.542 23.39C193.542 22.83 193.717 22.3867 194.067 22.06C194.417 21.71 194.872 21.535 195.432 21.535C195.945 21.535 196.365 21.6867 196.692 21.99C197.019 22.27 197.182 22.6783 197.182 23.215C197.182 24.0317 196.739 24.6033 195.852 24.93C195.899 24.9533 196.015 24.965 196.202 24.965C196.949 24.965 197.579 24.6267 198.092 23.95C198.629 23.2733 199.06 22.5033 199.387 21.64C200.32 19.2367 200.974 15.445 201.347 10.265C201.417 9.33167 201.219 8.67833 200.752 8.305C200.309 7.93167 199.585 7.745 198.582 7.745V7.01C199.609 7.10333 200.402 7.15 200.962 7.15H203.937H207.752C208.429 7.15 209.84 7.10333 211.987 7.01V7.745ZM224.239 14.5C226.665 14.5 228.439 14.955 229.559 15.865C230.702 16.7517 231.274 17.965 231.274 19.505C231.274 20.4383 231.017 21.325 230.504 22.165C229.99 22.9817 229.162 23.6583 228.019 24.195C226.899 24.7317 225.464 25 223.714 25C223.34 25 222.664 24.9767 221.684 24.93C220.61 24.8833 219.747 24.86 219.094 24.86C218.487 24.86 217.11 24.9067 214.964 25V24.265C215.944 24.265 216.632 24.09 217.029 23.74C217.425 23.3667 217.624 22.7017 217.624 21.745V10.265C217.624 9.30833 217.449 8.655 217.099 8.305C216.772 7.93167 216.177 7.745 215.314 7.745V7.01C217.274 7.10333 218.58 7.15 219.234 7.15C219.887 7.15 221.287 7.10333 223.434 7.01V7.745C222.454 7.745 221.765 7.93167 221.369 8.305C220.972 8.655 220.774 9.30833 220.774 10.265V14.5H224.239ZM223.329 24.265C225.055 24.265 226.257 23.8567 226.934 23.04C227.634 22.2 227.984 21.0917 227.984 19.715C227.984 18.105 227.529 16.9383 226.619 16.215C225.709 15.4683 224.227 15.095 222.174 15.095H220.774V21.745C220.774 22.6783 220.96 23.3317 221.334 23.705C221.707 24.0783 222.372 24.265 223.329 24.265ZM250.652 7.01C250.489 8.55 250.407 9.90333 250.407 11.07C250.407 11.98 250.442 12.7033 250.512 13.24H249.707C249.59 11.6767 249.345 10.4983 248.972 9.705C248.622 8.91167 248.132 8.38667 247.502 8.13C246.895 7.85 246.067 7.71 245.017 7.71H243.652V21.395C243.652 22.4683 243.955 23.215 244.562 23.635C245.192 24.055 246.125 24.265 247.362 24.265V25L246.487 24.965C244.177 24.895 242.707 24.86 242.077 24.86C241.447 24.86 239.977 24.895 237.667 24.965L236.792 25V24.265C238.029 24.265 238.95 24.055 239.557 23.635C240.187 23.215 240.502 22.4683 240.502 21.395V7.71H238.787C237.76 7.71 236.967 7.85 236.407 8.13C235.847 8.38667 235.404 8.91167 235.077 9.705C234.774 10.4983 234.564 11.6883 234.447 13.275H233.642C233.712 12.7383 233.747 12.015 233.747 11.105C233.747 9.93833 233.665 8.585 233.502 7.045H236.862C237.935 7.045 238.752 7.05667 239.312 7.08L242.042 7.115C242.672 7.115 243.594 7.09167 244.807 7.045L247.292 7.01H250.652ZM267.392 7.08C268.418 7.08 269.305 7.045 270.052 6.975V7.675C269.585 7.72167 269.165 7.93167 268.792 8.305C268.442 8.67833 268.103 9.285 267.777 10.125L262.037 25.175L260.847 28.22C260.403 29.3633 259.902 30.18 259.342 30.67C258.992 30.9967 258.572 31.23 258.082 31.37C257.592 31.51 257.102 31.58 256.612 31.58C255.912 31.58 255.34 31.3933 254.897 31.02C254.453 30.6467 254.232 30.1333 254.232 29.48C254.232 28.92 254.395 28.465 254.722 28.115C255.048 27.7883 255.503 27.625 256.087 27.625C256.6 27.625 257.02 27.765 257.347 28.045C257.697 28.3483 257.872 28.7567 257.872 29.27C257.872 29.97 257.557 30.495 256.927 30.845C256.973 30.8683 257.043 30.88 257.137 30.88C258.42 30.88 259.412 29.97 260.112 28.15L261.337 24.965L255.002 9.67C254.605 8.87667 254.208 8.35167 253.812 8.095C253.415 7.83833 253.018 7.71 252.622 7.71V6.975C253.625 7.115 254.768 7.185 256.052 7.185C257.218 7.185 258.735 7.115 260.602 6.975V7.71C259.762 7.71 259.143 7.78 258.747 7.92C258.373 8.06 258.187 8.39833 258.187 8.935C258.187 9.425 258.327 9.99667 258.607 10.65L262.807 21.08L266.692 10.965C266.948 10.265 267.077 9.72833 267.077 9.355C267.077 8.81833 266.867 8.42167 266.447 8.165C266.027 7.90833 265.362 7.745 264.452 7.675V6.975C265.688 7.045 266.668 7.08 267.392 7.08ZM283.578 6.485C284.815 6.485 285.923 6.82333 286.903 7.5C287.907 8.17667 288.688 9.16833 289.248 10.475C289.808 11.7817 290.088 13.345 290.088 15.165C290.088 16.9617 289.797 18.6417 289.213 20.205C288.653 21.7683 287.767 23.04 286.553 24.02C285.363 25 283.87 25.49 282.073 25.49C281.187 25.49 280.382 25.315 279.658 24.965C278.935 24.615 278.375 24.16 277.978 23.6V28.08C277.978 29.0367 278.258 29.69 278.818 30.04C279.378 30.4133 280.218 30.6 281.338 30.6V31.335L280.533 31.3C278.363 31.23 276.952 31.195 276.298 31.195C275.738 31.195 274.478 31.2417 272.518 31.335V30.6C273.382 30.6 273.977 30.4367 274.303 30.11C274.653 29.8067 274.828 29.2467 274.828 28.43V10.79C274.828 9.71667 274.63 8.935 274.233 8.445C273.837 7.955 273.148 7.71 272.168 7.71V6.975C272.892 7.045 273.615 7.08 274.338 7.08C275.808 7.08 277.022 6.91667 277.978 6.59V10.3C278.492 9.08667 279.238 8.15333 280.218 7.5C281.198 6.82333 282.318 6.485 283.578 6.485ZM281.688 24.685C285.025 24.685 286.693 21.675 286.693 15.655C286.693 10.2417 285.34 7.535 282.633 7.535C281.583 7.535 280.638 7.92 279.798 8.69C278.958 9.43667 278.352 10.5217 277.978 11.945V22.445C278.305 23.1217 278.783 23.67 279.413 24.09C280.043 24.4867 280.802 24.685 281.688 24.685ZM301.905 14.5C304.332 14.5 306.105 14.955 307.225 15.865C308.369 16.7517 308.94 17.965 308.94 19.505C308.94 20.4383 308.684 21.325 308.17 22.165C307.657 22.9817 306.829 23.6583 305.685 24.195C304.565 24.7317 303.13 25 301.38 25C301.124 25 300.599 24.9767 299.805 24.93C298.965 24.8833 298.3 24.86 297.81 24.86C297.204 24.86 295.827 24.9067 293.68 25V24.265C294.66 24.265 295.349 24.09 295.745 23.74C296.142 23.3667 296.34 22.7017 296.34 21.745V10.265C296.34 9.30833 296.165 8.655 295.815 8.305C295.489 7.93167 294.894 7.745 294.03 7.745V7.01C295.99 7.10333 297.297 7.15 297.95 7.15C298.604 7.15 300.004 7.10333 302.15 7.01V7.745C301.17 7.745 300.482 7.93167 300.085 8.305C299.689 8.655 299.49 9.30833 299.49 10.265V14.5H301.905ZM315.66 21.745C315.66 22.7017 315.859 23.3667 316.255 23.74C316.652 24.09 317.34 24.265 318.32 24.265V25C316.174 24.9067 314.75 24.86 314.05 24.86C313.444 24.86 312.16 24.9067 310.2 25V24.265C311.064 24.265 311.659 24.09 311.985 23.74C312.335 23.3667 312.51 22.7017 312.51 21.745V10.265C312.51 9.30833 312.335 8.655 311.985 8.305C311.659 7.93167 311.064 7.745 310.2 7.745V7.01C312.16 7.10333 313.444 7.15 314.05 7.15C314.704 7.15 316.01 7.10333 317.97 7.01V7.745C317.107 7.745 316.5 7.93167 316.15 8.305C315.824 8.655 315.66 9.30833 315.66 10.265V21.745ZM300.995 24.265C302.722 24.265 303.924 23.8567 304.6 23.04C305.3 22.2 305.65 21.0917 305.65 19.715C305.65 18.105 305.195 16.9383 304.285 16.215C303.375 15.4683 301.894 15.095 299.84 15.095H299.49V21.745C299.49 22.6783 299.595 23.3317 299.805 23.705C300.039 24.0783 300.435 24.265 300.995 24.265Z" fill="black"/>
</svg>
